<svg width="14" height="8" viewBox="0 0 14 8" fill="none" xmlns="http://www.w3.org/2000/svg">
<rect y="3" width="12" height="1" fill="#4D4D4D"/>
<path d="M13.079 3.15464C13.3052 3.31303 13.3602 3.6248 13.2018 3.851V3.851C13.0434 4.0772 12.7317 4.13218 12.5055 3.97379L8.4097 1.10591C8.1835 0.947517 8.12853 0.635745 8.28692 0.409542V0.409542C8.44531 0.183339 8.75708 0.128365 8.98328 0.286754L13.079 3.15464Z" fill="#4D4D4D"/>
<path d="M8.90958 6.87961C8.68337 7.038 8.3716 6.98302 8.21321 6.75682V6.75682C8.05482 6.53062 8.1098 6.21884 8.336 6.06045L12.4318 3.19257C12.658 3.03418 12.9697 3.08916 13.1281 3.31536V3.31536C13.2865 3.54156 13.2315 3.85334 13.0053 4.01172L8.90958 6.87961Z" fill="#4D4D4D"/>
</svg>
